<?xml version="1.0" standalone="no"?>
<!DOCTYPE svg PUBLIC "-//W3C//DTD SVG 20010904//EN"
 "http://www.w3.org/TR/2001/REC-SVG-20010904/DTD/svg10.dtd">
<svg version="1.0" xmlns="http://www.w3.org/2000/svg"
 width="512.000000pt" height="512.000000pt" viewBox="0 0 512.000000 512.000000"
 preserveAspectRatio="xMidYMid meet">

<g transform="translate(0.000000,512.000000) scale(0.100000,-0.100000)"
fill="#000000" stroke="none">
<path d="M1700 4710 l0 -410 49 0 c120 0 289 -43 421 -108 41 -20 78 -38 83
-40 4 -2 7 57 7 131 0 123 2 137 23 168 61 92 181 90 251 -4 20 -27 21 -44 26
-310 5 -272 6 -283 27 -313 44 -61 113 -220 140 -319 26 -98 26 -106 31 -487
4 -378 3 -389 -17 -431 -14 -28 -35 -51 -60 -65 -38 -22 -44 -22 -510 -22
l-471 0 0 -300 0 -300 793 0 c750 0 794 1 833 19 25 12 50 33 65 57 l24 39 -4
1495 c-3 1471 -3 1496 -23 1531 -11 20 -34 44 -51 55 -31 18 -65 19 -834 22
l-803 2 0 -410z"/>
<path d="M1575 3986 c-253 -49 -459 -215 -557 -448 -51 -120 -58 -178 -58
-470 l0 -268 750 0 750 0 0 228 c0 265 -10 363 -49 471 -40 116 -85 185 -181
281 -70 70 -102 94 -180 133 -52 26 -122 54 -155 63 -84 22 -235 26 -320 10z
m-95 -608 c54 -37 74 -72 74 -128 0 -146 -190 -203 -271 -81 -16 23 -23 49
-23 81 0 115 129 190 220 128z m612 -9 c78 -56 78 -182 0 -237 -46 -34 -95
-37 -147 -12 -111 54 -113 200 -4 258 51 27 104 24 151 -9z"/>
</g>
</svg>
